<?xml version="1.0" standalone="no"?>
<!DOCTYPE svg PUBLIC "-//W3C//DTD SVG 20010904//EN"
 "http://www.w3.org/TR/2001/REC-SVG-20010904/DTD/svg10.dtd">
<svg version="1.0" xmlns="http://www.w3.org/2000/svg"
 width="64.000000pt" height="64.000000pt" viewBox="0 0 64.000000 64.000000"
 preserveAspectRatio="xMidYMid meet">

<g transform="translate(0.000000,64.000000) scale(0.100000,-0.100000)"
fill="#000000" stroke="none">
<path d="M0 566 c0 -17 22 -26 66 -26 19 0 37 -6 39 -12 2 -7 23 -82 46 -165
l42 -153 183 0 183 0 21 73 c12 39 31 103 42 140 12 41 17 72 11 78 -5 5 -116
10 -248 11 l-239 3 -8 33 c-9 32 -9 32 -73 32 -49 0 -65 -3 -65 -14z m520
-191 c0 -6 -57 -11 -145 -13 -126 -2 -145 0 -145 13 0 13 19 15 145 13 88 -2
145 -7 145 -13z m-35 -75 c0 -12 -20 -16 -104 -18 -75 -2 -107 1 -112 10 -15
24 4 29 109 26 87 -2 107 -6 107 -18z"/>
<path d="M227 152 c-33 -37 -11 -92 37 -92 48 0 73 62 38 93 -24 22 -55 21
-75 -1z"/>
<path d="M450 150 c-24 -24 -25 -38 -4 -68 17 -24 62 -30 82 -10 20 20 15 76
-7 88 -29 15 -49 12 -71 -10z"/>
</g>
</svg>
