<svg version="1.0" xmlns="http://www.w3.org/2000/svg"
 width="64.000000pt" height="64.000000pt" viewBox="0 0 64.000000 64.000000"
 preserveAspectRatio="xMidYMid meet">

<g transform="translate(0.000000,64.000000) scale(0.100000,-0.100000)"> 
<path d="M245 606 c-52 -23 -85 -71 -85 -124 0 -85 58 -142 142 -142 39 0 90
29 113 64 22 33 22 103 1 143 -18 35 -80 73 -118 73 -13 -1 -37 -7 -53 -14z"/>
<path d="M370 318 c-18 -19 -20 -35 -20 -135 0 -108 1 -115 25 -138 18 -19 35
-25 68 -25 52 0 100 30 81 50 -9 9 -17 9 -32 1 -29 -15 -77 -14 -91 3 -8 9
-11 50 -9 117 l3 104 68 -2 c51 -1 67 2 67 13 0 21 -34 34 -89 34 -39 0 -55
-5 -71 -22z"/>
<path d="M205 273 c-76 -17 -147 -48 -162 -69 -19 -30 -14 -141 8 -155 8 -5
72 -9 143 -9 113 0 127 2 122 16 -3 9 -6 63 -6 120 l0 104 -42 -1 c-24 -1 -52
-3 -63 -6z"/>
<path d="M517 244 c-3 -4 -2 -15 3 -25 9 -16 5 -18 -42 -21 -39 -2 -53 -7 -53
-18 0 -11 14 -16 53 -18 45 -3 52 -5 42 -17 -13 -16 -5 -35 14 -35 6 0 27 16
46 35 l34 35 -34 35 c-33 34 -50 42 -63 29z"/>
</g>
</svg>
