<?xml version="1.0" standalone="no"?>
<!DOCTYPE svg PUBLIC "-//W3C//DTD SVG 20010904//EN"
 "http://www.w3.org/TR/2001/REC-SVG-20010904/DTD/svg10.dtd">
<svg version="1.0" xmlns="http://www.w3.org/2000/svg"
 width="128.000000pt" height="128.000000pt" viewBox="0 0 128.000000 128.000000"
 preserveAspectRatio="xMidYMid meet">

<g transform="translate(0.000000,128.000000) scale(0.100000,-0.100000)"
fill="#000000" stroke="none">
<path d="M560 1163 c-147 -24 -289 -120 -369 -247 -78 -125 -99 -301 -53 -438
132 -386 624 -490 894 -189 192 213 174 550 -39 741 -115 103 -289 157 -433
133z m272 -95 c303 -144 373 -525 139 -759 -186 -186 -476 -186 -662 0 -186
186 -186 476 0 662 101 101 204 140 353 135 86 -3 104 -7 170 -38z"/>
<path d="M394 805 c-4 -8 -4 -22 0 -30 5 -13 39 -15 248 -13 l243 3 0 25 0 25
-243 3 c-209 2 -243 0 -248 -13z"/>
<path d="M394 655 c-4 -8 -4 -22 0 -30 5 -13 39 -15 248 -13 l243 3 0 25 0 25
-243 3 c-209 2 -243 0 -248 -13z"/>
<path d="M394 505 c-4 -8 -4 -22 0 -30 5 -13 39 -15 248 -13 l243 3 0 25 0 25
-243 3 c-209 2 -243 0 -248 -13z"/>
</g>
</svg>
